<svg width="32" height="33" viewBox="0 0 32 33" fill="none" xmlns="http://www.w3.org/2000/svg">
<g id="InstagramLogo" clip-path="url(#clip0_1_269)">
<path id="Vector" d="M16 21.5273C18.7614 21.5273 21 19.2888 21 16.5273C21 13.7659 18.7614 11.5273 16 11.5273C13.2386 11.5273 11 13.7659 11 16.5273C11 19.2888 13.2386 21.5273 16 21.5273Z" stroke="black" stroke-width="2" stroke-miterlimit="10"/>
<path id="Vector_2" d="M22 4.52734H10C6.68629 4.52734 4 7.21364 4 10.5273V22.5273C4 25.8411 6.68629 28.5273 10 28.5273H22C25.3137 28.5273 28 25.8411 28 22.5273V10.5273C28 7.21364 25.3137 4.52734 22 4.52734Z" stroke="black" stroke-width="2" stroke-linecap="round" stroke-linejoin="round"/>
<path id="Vector_3" d="M22.5 11.5273C23.3284 11.5273 24 10.8558 24 10.0273C24 9.19892 23.3284 8.52734 22.5 8.52734C21.6716 8.52734 21 9.19892 21 10.0273C21 10.8558 21.6716 11.5273 22.5 11.5273Z" fill="black"/>
</g>
<defs>
<clipPath id="clip0_1_269">
<rect width="32" height="32" fill="white" transform="translate(0 0.527344)"/>
</clipPath>
</defs>
</svg>
