<svg width="32" height="33" viewBox="0 0 32 33" fill="none" xmlns="http://www.w3.org/2000/svg">
<g id="RedditLogo" clip-path="url(#clip0_1_281)">
<path id="Vector" d="M23 6.49609C24.1046 6.49609 25 5.60066 25 4.49609C25 3.39152 24.1046 2.49609 23 2.49609C21.8954 2.49609 21 3.39152 21 4.49609C21 5.60066 21.8954 6.49609 23 6.49609Z" stroke="black" stroke-width="2" stroke-linecap="round" stroke-linejoin="round"/>
<path id="Vector_2" d="M16 9.49609L17 3.49609L21.0362 4.11734" stroke="black" stroke-width="2" stroke-linecap="round" stroke-linejoin="round"/>
<path id="Vector_3" d="M7.42622 11.7311C9.71497 10.3398 12.715 9.49609 16 9.49609C19.285 9.49609 22.285 10.3398 24.5737 11.7311C24.836 11.3712 25.1752 11.0743 25.5666 10.8618C25.9579 10.6493 26.3917 10.5266 26.8364 10.5026C27.281 10.4786 27.7255 10.5539 28.1374 10.7231C28.5494 10.8922 28.9185 11.151 29.218 11.4805C29.5176 11.8101 29.74 12.2022 29.8691 12.6283C29.9982 13.0545 30.0309 13.5041 29.9646 13.9445C29.8984 14.3849 29.7349 14.805 29.4861 15.1743C29.2373 15.5437 28.9094 15.853 28.5262 16.0798C28.8378 16.8474 28.9987 17.6677 29 18.4961C29 23.4661 23.18 27.4961 16 27.4961C8.81997 27.4961 2.99997 23.4661 2.99997 18.4961C3.00127 17.6677 3.16211 16.8474 3.47372 16.0798C3.09051 15.853 2.76261 15.5437 2.51381 15.1743C2.26501 14.805 2.10157 14.3849 2.03533 13.9445C1.96909 13.5041 2.00172 13.0545 2.13085 12.6283C2.25998 12.2022 2.48238 11.8101 2.7819 11.4805C3.08142 11.151 3.45055 10.8922 3.86251 10.7231C4.27446 10.5539 4.71891 10.4786 5.16358 10.5026C5.60826 10.5266 6.04202 10.6493 6.43339 10.8618C6.82475 11.0743 7.1639 11.3712 7.42622 11.7311Z" stroke="black" stroke-width="2" stroke-linecap="round" stroke-linejoin="round"/>
<path id="Vector_4" d="M11 18.4961C12.1046 18.4961 13 17.6007 13 16.4961C13 15.3915 12.1046 14.4961 11 14.4961C9.89543 14.4961 9 15.3915 9 16.4961C9 17.6007 9.89543 18.4961 11 18.4961Z" fill="black"/>
<path id="Vector_5" d="M21 18.4961C22.1046 18.4961 23 17.6007 23 16.4961C23 15.3915 22.1046 14.4961 21 14.4961C19.8954 14.4961 19 15.3915 19 16.4961C19 17.6007 19.8954 18.4961 21 18.4961Z" fill="black"/>
<path id="Vector_6" d="M20 22.4961C18.7689 23.1527 17.3952 23.4961 16 23.4961C14.6048 23.4961 13.2311 23.1527 12 22.4961" stroke="black" stroke-width="2" stroke-linecap="round" stroke-linejoin="round"/>
</g>
<defs>
<clipPath id="clip0_1_281">
<rect width="32" height="32" fill="white" transform="translate(0 0.496094)"/>
</clipPath>
</defs>
</svg>
