<svg width="32" height="33" viewBox="0 0 32 33" fill="none" xmlns="http://www.w3.org/2000/svg">
<g id="YoutubeLogo" clip-path="url(#clip0_1_277)">
<path id="Vector" d="M20 16.6211L14 12.6211V20.6211L20 16.6211Z" stroke="black" stroke-width="2" stroke-linecap="round" stroke-linejoin="round"/>
<path id="Vector_2" d="M3 16.6211C3 20.3598 3.38375 22.5523 3.67625 23.6798C3.7536 23.9865 3.90258 24.2705 4.11096 24.5084C4.31935 24.7464 4.58119 24.9315 4.875 25.0486C9.065 26.6648 16 26.6211 16 26.6211C16 26.6211 22.935 26.6648 27.125 25.0486C27.4197 24.9321 27.6826 24.7473 27.8919 24.5093C28.1012 24.2713 28.2509 23.987 28.3288 23.6798C28.6213 22.5548 29.005 20.3598 29.005 16.6211C29.005 12.8823 28.6213 10.6898 28.3288 9.56234C28.2518 9.25399 28.1024 8.96843 27.8931 8.72931C27.6838 8.49019 27.4205 8.3044 27.125 8.18734C22.935 6.57734 16 6.62109 16 6.62109C16 6.62109 9.065 6.57734 4.875 8.19359C4.57954 8.31065 4.31623 8.49644 4.1069 8.73556C3.89756 8.97468 3.74822 9.26024 3.67125 9.56859C3.38375 10.6886 3 12.8823 3 16.6211Z" stroke="black" stroke-width="2" stroke-linecap="round" stroke-linejoin="round"/>
</g>
<defs>
<clipPath id="clip0_1_277">
<rect width="32" height="32" fill="white" transform="translate(0 0.621094)"/>
</clipPath>
</defs>
</svg>
