<svg width="32" height="33" viewBox="0 0 32 33" fill="none" xmlns="http://www.w3.org/2000/svg">
<g id="TiktokLogo" clip-path="url(#clip0_1_274)">
<path id="Vector" d="M21 13.3086C23.0387 14.776 25.4881 15.5633 28 15.5586V10.5586C26.1435 10.5586 24.363 9.8211 23.0503 8.50834C21.7375 7.19559 21 5.41511 21 3.55859H16V20.0586C15.9997 20.6849 15.8314 21.2996 15.5126 21.8387C15.1938 22.3778 14.7362 22.8215 14.1875 23.1234C13.6389 23.4254 13.0192 23.5746 12.3932 23.5555C11.7672 23.5364 11.1578 23.3496 10.6285 23.0148C10.0993 22.6799 9.66962 22.2091 9.3843 21.6516C9.09898 21.0941 8.96849 20.4702 9.00643 19.8451C9.04437 19.2199 9.24936 18.6164 9.60002 18.0975C9.95067 17.5786 10.4341 17.1633 11 16.8948V11.5586C7.02125 12.2673 4 15.8761 4 20.0586C4 22.3129 4.89553 24.4749 6.48959 26.069C8.08365 27.6631 10.2457 28.5586 12.5 28.5586C14.7543 28.5586 16.9163 27.6631 18.5104 26.069C20.1045 24.4749 21 22.3129 21 20.0586V13.3086Z" stroke="black" stroke-width="2" stroke-linecap="round" stroke-linejoin="round"/>
</g>
<defs>
<clipPath id="clip0_1_274">
<rect width="32" height="32" fill="white" transform="translate(0 0.558594)"/>
</clipPath>
</defs>
</svg>
